# xmcd
#
# Track frame offsets:
#	150
#	8710
#	20900
#	33927
#	44547
#	54255
#	61935
#	75397
#	92030
#	105807
#	117795
#	130662
#	141515
#	155205
#	170952
#	179807
#	192157
#	206415
#	218172
#	230827
#	245707
#	264835
#
# Disc length: 3688 seconds
#
# Revision: 3
# Processed by: cddbd v1.5.2PL0 Copyright (c) Steve Scherf et al.
# Submitted via: EasyCDDAExtractor 8.2.3.1
#
DISCID=380e6616
DTITLE=Doc Watson - Memories
DYEAR=1975
DGENRE=Country
TTITLE0=Rambling Hobo
TTITLE1=Shady Grove
TTITLE2=Wake Up, Little Maggie
TTITLE3=Peartree
TTITLE4=Keep On The Sunny Side
TTITLE5=Double File And Salt Creek
TTITLE6=Curly Headed Baby
TTITLE7=Miss The Missippi And You
TTITLE8=Wabash Cannonball
TTITLE9=My Rose Of Old Kentucky
TTITLE10=Blues Stay Away From Me
TTITLE11=Walking Boss
TTITLE12=Make Me A Pallet
TTITLE13=In The Jailhouse Now
TTITLE14=Steel Guitar Rag
TTITLE15=Hang Your Head In Shame
TTITLE16=You Don't Know My Mind Blues
TTITLE17=Moody River
TTITLE18=Don't Tell Me Your Troubles
TTITLE19=Columbus Stockade
TTITLE20=Mama Don't Allow No Music
TTITLE21=Thoughts Of Never
EXTD=YEAR: 1975
EXTT0=
EXTT1=
EXTT2=
EXTT3=
EXTT4=
EXTT5=
EXTT6=
EXTT7=
EXTT8=
EXTT9=
EXTT10=
EXTT11=
EXTT12=
EXTT13=
EXTT14=
EXTT15=
EXTT16=
EXTT17=
EXTT18=
EXTT19=
EXTT20=
EXTT21=
PLAYORDER=
